<?xml version="1.0" encoding="UTF-8"?>
<svg id="Layer_2" data-name="Layer 2" xmlns="http://www.w3.org/2000/svg" viewBox="0 0 12.82173 15.62787">
  <defs>
    <style>
      .cls-1 {
        fill: #fff;
      }

      .cls-1, .cls-2 {
        stroke: #fff;
        stroke-miterlimit: 10;
        stroke-width: .05px;
      }

      .cls-3 {
        fill: #231f20;
      }

      .cls-2 {
        fill: none;
      }
    </style>
  </defs>
  <g id="Black_Fill_White" data-name="Black Fill / White">
    <g id="_16" data-name="16">
      <g id="_16-2" data-name="16">
        <path class="cls-3" d="M2.70043,6.29832l-.01263,4.261c.00268.16003-.04743.23915-.14805.3087l-2.2788,1.57523c-.09899.06843-.2341-.00241-.23413-.12276l-.00183-9.34947c-.00002-.03615.03741-.07944.08743-.07938l3.99245-.01599c.14328-.00057.27221.08688.32467.22021l1.80573,4.58964L9.60159.1004c.0411-.08726.14114-.09854.20171-.03511l2.64239,2.73827c.02653.02749.05638.08418.05648.12239l.01107,7.9768c.00013.09047-.03568.17729-.09955.24136l-.68707.68928c-.0089.00892-.01214.02203-.00844.03408l1.06925,3.47854c.05535.18006-.14838.3283-.30267.22025l-2.80922-1.96743c-.04958-.03472-.0791-.09144-.0791-.15197v-6.59569s-1.76396,4.24313-1.76396,4.24313c-.04722.1136-.15816.18762-.28117.18762h-2.95765c-.12057,0-.22775-.07681-.26651-.19099l-1.62672-4.79259Z"/>
        <polygon class="cls-1" points="6.40018 8.09771 6.78218 7.22809 7.55528 10.9325 6.40018 8.09771"/>
        <path class="cls-2" d="M7.46263,11.28479c.28983-.00579.32448-.09326.38438-.23652l1.75474-4.1965"/>
        <path class="cls-2" d="M.025,2.97361l.00223,9.35317c.00004.1164.13065.18498.22649.11893l2.3008-1.5856c.08433-.06126.13437-.15908.13468-.26331l.01274-4.29814"/>
        <path class="cls-2" d="M7.57178,11.08216c-.77711-1.97907-3.1083-7.91635-3.1083-7.91635-.07628-.1999-.16801-.28679-.38196-.28679l-3.96902.01123c-.07863.00022-.11714.09592-.06059.15055l2.34069,2.37022c.0247.02386,1.94024,5.68381,1.94024,5.68381.03973.11376.14705.18996.26755.18996h2.86224c.07671,0,.17213-.04224.10915-.20263"/>
        <line class="cls-2" x1="9.61472" y1=".08792" x2="6.23873" y2="7.68657"/>
        <path class="cls-2" d="M9.69244,13.61676s.13787.09655.33914-.10472l2.40476-2.38377c.08173-.07876.08091-.19869.08354-.29881l-.00911-7.87801c-.00007-.0596-.02417-.11665-.06686-.15825L9.8029.06093c-.07312-.07565-.20115-.02388-.20115.08132v13.3343c0,.04759.05191.11263.09069.14021l2.77886,1.93908c.16082.11364.37305.00872.31592-.17974l-1.06857-3.52504"/>
        <path class="cls-2" d="M10.03158,13.51204l2.406,1.68843c.0299.0217.0408.02647.02914-.00858l-.99023-3.11213"/>
        <path class="cls-2" d="M.28944,3.28132l.00039,8.77206c0,.0172.01934.02732.03347.0175l1.9948-1.38596c.04667-.03243.07451-.08566.07451-.14249v-5.104"/>
        <path class="cls-2" d="M7.51232,10.95568s.0506-.00752.08032-.07717l2.00911-4.82506"/>
        <path class="cls-2" d="M2.70815,5.1698c.01215.01167.02121.02616.0264.04219l1.83559,5.67686c.01773.05216.06677.08719.12186.08704l2.43403-.00636c.01903-.00005.03209-.01919.02519-.03693l-2.95701-7.66128c-.02137-.05537-.07461-.09189-.13396-.09189H.67757c-.01486,0-.02215.0181-.01143.0284l2.04201,1.96196Z"/>
        <line class="cls-2" x1="9.60175" y1=".78561" x2="6.40018" y2="8.09771"/>
        <path class="cls-2" d="M9.97501.79659l-.10449,12.49492c-.00012.01457.01755.02189.02776.0115l2.26768-2.30553c.05028-.04926.07843-.11682.07801-.18721l-.04679-7.77301c-.0002-.03302-.0133-.06465-.0365-.08814l-2.14309-2.1698c-.01556-.01575-.0424-.00486-.04258.01728Z"/>
        <path class="cls-1" d="M2.3926,5.41742v1.61078S.32121,3.33792.32121,3.33792c-.00486-.00865.00655-.01717.01347-.01005l2.05342,2.07859c.00289.00292.0045.00686.0045.01097Z"/>
        <polygon class="cls-1" points="9.60175 6.05345 9.48711 6.32879 8.87222 2.47027 9.60175 .78561 9.60175 6.05345"/>
      </g>
    </g>
  </g>
</svg>