<?xml version="1.0" encoding="UTF-8"?>
<svg id="Layer_2" data-name="Layer 2" xmlns="http://www.w3.org/2000/svg" viewBox="0 0 25.61786 31.22014">
  <defs>
    <style>
      .cls-1 {
        fill: #231f20;
      }

      .cls-2 {
        fill: #fff;
      }

      .cls-2, .cls-3 {
        stroke: #fff;
        stroke-miterlimit: 10;
        stroke-width: .12px;
      }

      .cls-3 {
        fill: none;
      }
    </style>
  </defs>
  <g id="Black_Fill_White" data-name="Black Fill / White">
    <g id="_32" data-name="32">
      <g id="_32-2" data-name="32">
        <path class="cls-1" d="M5.40314,12.58425l-.02521,8.5068c.00534.3195-.09468.47744-.29555.6163l-4.54905,3.14484c-.19761.13661-.46733-.00482-.46737-.24507l-.00366-18.66557c-.00004-.07216.07468-.1586.17452-.15847l7.96993-.03193c.28602-.00115.54341.17345.64813.43964l3.60469,9.1629L19.17958.21053c.08204-.17421.28176-.19672.40267-.07009l5.27487,5.46676c.05296.05489.11254.16805.11275.24433l.0221,15.92512c.00025.18062-.07123.35394-.19873.48186l-1.37156,1.37609c-.01776.01782-.02424.04398-.01685.06803l2.1345,6.94466c.11049.35947-.29621.65544-.60421.43971l-5.60791-3.92783c-.09897-.06932-.1579-.18256-.1579-.3034v-13.16783s-3.5213,8.47111-3.5213,8.47111c-.09427.22679-.31572.37456-.56129.37456h-5.90422c-.24069,0-.45465-.15334-.53201-.38129l-3.24734-9.56808Z"/>
        <polygon class="cls-2" points="12.7876 16.17659 13.55025 14.44047 15.09369 21.83606 12.7876 16.17659"/>
        <path class="cls-3" d="M14.9087,22.53939c.57862-.01155.64781-.18619.7674-.4722l3.50321-8.37801"/>
        <path class="cls-3" d="M.06,5.94669l.00445,18.67296c.00008.23238.26084.36929.45218.23743l4.59338-3.16554c.16836-.12229.26825-.31759.26887-.52568l.02543-8.58094"/>
        <path class="cls-3" d="M15.12662,22.13485c-1.55145-3.95108-6.2055-15.80445-6.2055-15.80445-.15228-.39908-.33542-.57256-.76256-.57256l-7.92388.02242c-.15697.00044-.23386.19151-.12096.30056l4.67303,4.73198c.04931.04763,3.87356,11.34733,3.87356,11.34733.07931.22712.29358.37925.53415.37925h5.71425c.15315,0,.34364-.08434.21791-.40453"/>
        <line class="cls-3" x1="19.20521" y1=".18563" x2="12.46527" y2="15.35579"/>
        <path class="cls-3" d="M19.36037,27.195s.27524.19276.67707-.20906l4.80094-4.75903c.16318-.15724.16154-.39668.16678-.59655l-.01819-15.7279c-.00014-.11899-.04826-.23289-.13348-.31594L19.5809.13172c-.14598-.15102-.40158-.04768-.40158.16236v26.621c0,.09501.10363.22486.18106.27992l5.54779,3.87124c.32107.22688.74476.01741.63071-.35883l-2.13332-7.03751"/>
        <path class="cls-3" d="M20.03744,26.98594l4.8034,3.37083c.0597.04332.08145.05285.05817-.01714l-1.97692-6.21316"/>
        <path class="cls-3" d="M.58793,6.56102l.00077,17.5128c0,.03435.03861.05453.06682.03493l3.98248-2.76698c.09318-.06474.14875-.17101.14875-.28448v-10.18979"/>
        <path class="cls-3" d="M15.00791,21.88234s.10102-.01501.16036-.15406l4.01106-9.63289"/>
        <path class="cls-3" d="M5.41673,10.33124c.02425.0233.04235.05223.0527.08423l3.66462,11.33345c.0354.10413.13329.17406.24328.17377l4.85936-.01269c.038-.0001.06406-.03831.05028-.07372l-5.90346-15.29521c-.04267-.11054-.14895-.18344-.26744-.18344H1.36282c-.02967,0-.04422.03614-.02282.0567l4.07673,3.91691Z"/>
        <line class="cls-3" x1="19.17932" y1="1.5785" x2="12.7876" y2="16.17659"/>
        <path class="cls-3" d="M19.92449,1.60043l-.20861,24.94523c-.00024.02909.03503.0437.05543.02296l4.52727-4.60283c.10039-.09835.15659-.23322.15574-.37375l-.09342-15.51827c-.0004-.06592-.02655-.12907-.07287-.17597l-4.27854-4.33186c-.03106-.03145-.08464-.00971-.08501.03449Z"/>
        <path class="cls-2" d="M4.78675,10.8256v3.21581S.65136,6.67402.65136,6.67402c-.00969-.01727.01308-.03427.02688-.02007l4.09951,4.14975c.00576.00583.00899.0137.00899.02189Z"/>
        <polygon class="cls-2" points="19.17932 12.09539 18.95043 12.64507 17.72285 4.94181 19.17932 1.5785 19.17932 12.09539"/>
      </g>
    </g>
  </g>
</svg>