<?xml version="1.0" encoding="UTF-8"?>
<svg id="Layer_2" data-name="Layer 2" xmlns="http://www.w3.org/2000/svg" viewBox="0 0 38.96057 47.48126">
  <defs>
    <style>
      .cls-1 {
        fill: #231f20;
      }

      .cls-2 {
        fill: none;
      }

      .cls-2, .cls-3 {
        stroke: #fff;
        stroke-miterlimit: 10;
        stroke-width: .18px;
      }

      .cls-3 {
        fill: #fff;
      }
    </style>
  </defs>
  <g id="Black_Fill_White" data-name="Black Fill / White">
    <g id="_48" data-name="48">
      <g id="_48-2" data-name="48">
        <path class="cls-1" d="M8.21379,19.13856l-.03835,12.93828c.00813.48593-.14402.72616-.44955.93736l-6.91943,4.78309c-.30058.20778-.71084-.00733-.71091-.37274l-.00556-28.3891c-.00005-.10976.1136-.24123.26546-.24103l12.12283-.04856c.43506-.00174.82656.2638.98585.66867l5.48299,13.93617L29.16875.31895c.12478-.26496.42858-.2992.61248-.1066l8.02346,8.31458c.08056.08348.17119.2556.1715.37162l.03361,24.22106c.00038.27471-.10835.53832-.30228.73287l-2.08624,2.09295c-.02701.0271-.03687.06689-.02563.10347l3.24672,10.56237c.16806.54673-.45055.99688-.91904.66877l-8.53004-5.97398c-.15054-.10543-.24018-.27766-.24018-.46145v-20.02741s-5.35616,12.88401-5.35616,12.88401c-.14339.34493-.48023.56969-.85376.56969h-8.98073c-.36611,0-.69155-.23322-.80923-.57992l-4.93944-14.55242Z"/>
        <polygon class="cls-3" points="19.44783 24.60228 20.60778 21.96175 22.95525 33.20995 19.44783 24.60228"/>
        <path class="cls-2" d="M22.6739,34.27967c.88004-.01757.98527-.28319,1.16716-.71818l5.32816-12.7424"/>
        <path class="cls-2" d="M.09,9.04327l.00676,28.40034c.00013.35343.39671.56167.68773.36112l6.98622-4.81458c.25607-.186.408-.48304.40894-.79953l.03868-13.05105"/>
        <path class="cls-2" d="M23.00533,33.6644c-2.35966-6.00933-9.43816-24.03752-9.43816-24.03752-.23161-.60698-.51015-.87083-1.15981-.87083l-12.0517.0341c-.23875.00068-.35569.29127-.18397.45713l7.10737,7.19703c.075.07244,5.89142,17.25855,5.89142,17.25855.12063.34544.44651.57682.8124.57682h8.69101c.23294,0,.52265-.12827.33143-.61527"/>
        <line class="cls-2" x1="29.2086" y1=".28107" x2="18.9576" y2="23.35388"/>
        <path class="cls-2" d="M29.4446,41.36054s.41862.29318,1.02978-.31797l7.30192-7.23817c.24818-.23916.24569-.60332.25367-.90731l-.02766-23.92111c-.00021-.18097-.0734-.35422-.20301-.48052L29.78.19908c-.22203-.2297-.61078-.07253-.61078.24694v40.48878c0,.1445.15762.342.27538.42574l8.43783,5.88791c.48833.34507,1.13273.02648.95926-.54576l-3.24464-10.70358"/>
        <path class="cls-2" d="M30.47437,41.04257l7.30566,5.1268c.09079.06589.12387.08038.08847-.02606l-3.00677-9.4498"/>
        <path class="cls-2" d="M.89295,9.97763l.00118,26.63582c0,.05224.05872.08294.10162.05313l6.05709-4.20839c.14172-.09847.22624-.2601.22624-.43267v-15.498"/>
        <path class="cls-2" d="M22.82478,33.28034s.15365-.02283.24389-.23432l6.10055-14.65099"/>
        <path class="cls-2" d="M8.23723,15.71189c.03688.03543.06441.07944.08015.12811l5.57365,17.23743c.05383.15838.20273.26473.37001.2643l7.39077-.0193c.05779-.00015.09743-.05826.07647-.11212L12.74951,9.94729c-.06489-.16813-.22654-.27901-.40676-.27901H2.0715c-.04512,0-.06725.05497-.03471.08623l6.20045,5.95737Z"/>
        <line class="cls-2" x1="29.16922" y1="2.39954" x2="19.44783" y2="24.60228"/>
        <path class="cls-2" d="M30.30258,2.43289l-.31727,37.94005c-.00037.04424.05328.06647.08431.03492l6.88568-7.0006c.15269-.14958.23816-.35471.23687-.56845l-.14208-23.60227c-.0006-.10026-.04038-.19631-.11084-.26764l-6.50737-6.58847c-.04724-.04783-.12874-.01477-.1293.05246Z"/>
        <path class="cls-3" d="M7.27907,16.46376v4.89103S.98942,10.14949.98942,10.14949c-.01474-.02626.0199-.05213.04089-.03053l6.23509,6.3115c.00876.00887.01367.02083.01367.0333Z"/>
        <polygon class="cls-3" points="29.16922 18.39504 28.82111 19.23107 26.95404 7.51492 29.16922 2.39954 29.16922 18.39504"/>
      </g>
    </g>
  </g>
</svg>