<?xml version="1.0" encoding="UTF-8"?>
<svg id="Layer_2" data-name="Layer 2" xmlns="http://www.w3.org/2000/svg" viewBox="0 0 473.20554 576.93251">
  <defs>
    <style>
      .cls-1 {
        fill: #fff;
      }

      .cls-1, .cls-2, .cls-3 {
        stroke: #fff;
        stroke-miterlimit: 10;
      }

      .cls-2 {
        fill: none;
      }

      .cls-3 {
        fill: #231f20;
      }
    </style>
  </defs>
  <g id="Black_Fill_White" data-name="Black Fill / White">
    <g id="Original">
      <g>
        <path class="cls-3" d="M99.41858,232.4322l-.46691,157.53442c.09894,5.91663-1.75362,8.84158-5.47388,11.41313l-84.25318,58.23819c-3.65992,2.52984-8.65538-.08924-8.65625-4.53841l-.06771-345.66107c-.00066-1.3364,1.38318-2.93712,3.23237-2.93472l147.61155-.59131c5.29742-.02122,10.06448,3.21198,12.00405,8.14161l66.76262,169.68461L354.57294,3.28768c1.5194-3.22612,5.2185-3.64304,7.45782-1.29792l97.69626,101.23695c.98096,1.01645,2.08443,3.11213,2.08824,4.52473l.40923,294.91165c.00464,3.34478-1.31927,6.55448-3.68064,8.92335l-25.40272,25.48341c-.32892.32997-.44893.8145-.31203,1.25984l39.53315,128.60574c2.04631,6.65689-5.48604,12.13781-11.19057,8.14283l-103.86451-72.73817c-1.83297-1.28366-2.92453-3.38073-2.92454-5.61849l-.00006-243.85047-65.21823,156.87357c-1.746,4.19975-5.84748,6.93642-10.39571,6.93642h-109.35235c-4.45789,0-8.42055-2.83964-9.85343-7.06098l-60.14426-177.18794Z"/>
        <polygon class="cls-1" points="236.07715 298.9111 250.19318 266.77693 278.761 403.66308 236.07715 298.9111"/>
        <path class="cls-2" d="M354.38256,252.87113l-64.84157,155.06998c-2.21354,5.29373-3.49419,8.52615-14.20388,8.74"/>
        <path class="cls-2" d="M279.37051,409.19351c-28.71609-73.13121-114.85865-292.52709-114.85865-292.52709-2.81856-7.38668-6.20827-10.5977-14.11442-10.5977l-146.6644.415c-2.90545.00822-4.32863,3.54461-2.23882,5.56312l86.49391,87.58496c.91271.88157,71.69627,210.02967,71.69627,210.02967,1.468,4.20383,5.43385,7.01963,9.88663,7.01963h105.76608c2.83473,0,6.36044-1.56104,4.0334-7.4876"/>
        <line class="cls-2" x1="354.86183" y1="2.93162" x2="230.11125" y2="283.71863"/>
        <path class="cls-2" d="M432.60664,437.60602l39.48604,130.25836c2.11099,6.96385-5.73111,10.84106-11.67387,6.64164l-102.68502-71.65349c-1.43312-1.01902-3.35117-3.4226-3.35117-5.18108l-.00007-492.73239c0-3.88774,4.73097-5.80048,7.43294-3.00514l97.59147,100.96367c1.57733,1.53706,2.46805,3.64533,2.47059,5.84772l.33663,291.11035c-.09709,3.69943-.06675,8.13119-3.08701,11.04162l-88.86141,88.08568c-7.43749,7.43749-12.53198,3.86957-12.53198,3.86957"/>
        <path class="cls-2" d="M370.26576,498.98296l88.90699,62.39117c1.10491.80179,1.50749.97824,1.07669-.31719l-36.59123-115.00034"/>
        <path class="cls-2" d="M10.27159,120.93494l.01433,324.14734c.00003.63576.71458,1.00937,1.23669.64662l73.71243-51.21441c1.7247-1.1983,2.75322-3.16529,2.75321-5.26542l-.00013-188.60447"/>
        <path class="cls-2" d="M277.17322,404.51966s1.86982-.27778,2.96804-2.85154l74.24132-178.29671"/>
        <path class="cls-2" d="M99.64856,190.71855c.44881.43121.7839.96681.97539,1.55902l67.82905,209.77265c.65515,1.92738,2.46717,3.22172,4.50285,3.2164l89.94277-.23484c.70329-.00184,1.18565-.70904.93066-1.36448L154.56124,120.56571c-.78971-2.04606-2.75688-3.39541-4.95006-3.39541H24.61406c-.54913,0-.81843.66899-.42245,1.04944l75.45696,72.49881Z"/>
        <line class="cls-2" x1="354.38256" y1="28.71263" x2="236.07715" y2="298.9111"/>
        <path class="cls-2" d="M368.17515,29.11842l-3.8611,461.71536c-.0045.53842.6484.8089,1.02597.42502l83.79598-85.19455c1.85812-1.82037,2.89831-4.31663,2.88265-6.91781l-1.72905-287.23022c-.00734-1.22012-.4914-2.38903-1.34882-3.25713l-79.19212-80.17905c-.57492-.58209-1.56667-.17972-1.57351.63839Z"/>
        <path class="cls-1" d="M87.98813,199.86858v59.52192S11.44555,123.0264,11.44555,123.0264c-.17941-.31963.24215-.63436.49761-.3715l75.87858,76.80848c.10661.10792.1664.2535.1664.4052Z"/>
        <polygon class="cls-1" points="354.38258 223.37141 350.14615 233.54557 327.42466 90.9647 354.38256 28.71263 354.38258 223.37141"/>
        <path class="cls-2" d="M.5,109.5642l.08229,345.62085c.00154,4.3011,4.82785,6.83532,8.3694,4.39465l85.01957-58.59147c3.11628-2.26353,4.96517-5.8784,4.97659-9.72997l.47074-158.82606"/>
      </g>
    </g>
  </g>
</svg>