<?xml version="1.0" encoding="UTF-8"?>
<svg id="Layer_2" data-name="Layer 2" xmlns="http://www.w3.org/2000/svg" viewBox="0 0 19.2034 23.4051">
  <defs>
    <style>
      .cls-1 {
        fill: #fff;
      }

      .cls-2 {
        fill: none;
      }

      .cls-2, .cls-3 {
        stroke: #231f20;
        stroke-miterlimit: 10;
        stroke-width: .08px;
      }

      .cls-3 {
        fill: #231f20;
      }
    </style>
  </defs>
  <g id="White_Fill_Black" data-name="White Fill / Black">
    <g id="_24" data-name="24">
      <path class="cls-1" d="M4.04847,9.43319l-.01891,6.3801c.00401.23962-.07101.35808-.22165.46223l-3.41153,2.35863c-.1482.10246-.35047-.00361-.3505-.1838l-.00274-13.99917c-.00003-.05412.05601-.11895.13088-.11886l5.977-.02395c.2145-.00086.40753.13008.48606.32973l2.70331,6.87218L14.38004.1529c.06152-.13066.2113-.14754.30198-.05257l3.95586,4.10007c.03972.04117.0844.12604.08456.18325l.01657,11.94384c.00019.13546-.05342.26545-.14903.36139l-1.02859,1.03207c-.01332.01336-.01818.03299-.01263.05102l1.60075,5.2085c.08286.2696-.22214.49158-.45312.32978l-4.20562-2.94588c-.07422-.05199-.11842-.13692-.11842-.22755v-9.87587s-2.64078,6.35333-2.64078,6.35333c-.0707.17009-.23677.28092-.42094.28092h-4.42783c-.18051,0-.34096-.115-.39898-.28597l-2.43533-7.17606Z"/>
      <polygon class="cls-3" points="9.5857 12.12744 10.15768 10.82535 11.31526 16.37204 9.5857 12.12744"/>
      <path class="cls-2" d="M11.17653,16.89954c.43396-.00867.48585-.13964.57555-.35415l2.62741-6.28351"/>
      <path class="cls-2" d="M.04,4.45502l.00333,14.00472c.00006.17428.19563.27697.33913.17807l3.44503-2.37415c.12627-.09172.20119-.2382.20165-.39426l.01907-6.43571"/>
      <path class="cls-2" d="M11.33996,16.59614c-1.16359-2.96331-4.65413-11.85333-4.65413-11.85333-.11421-.29931-.25156-.42942-.57192-.42942l-5.94291.01682c-.11773.00033-.1754.14363-.09072.22542l3.50477,3.54898c.03698.03572,2.90517,8.5105,2.90517,8.5105.05948.17034.22018.28444.40061.28444h4.28569c.11486,0,.25773-.06325.16344-.3034"/>
      <line class="cls-2" x1="14.39891" y1=".13422" x2="9.34395" y2="11.51184"/>
      <path class="cls-2" d="M14.51528,20.39125s.20643.14457.5078-.1568l3.60071-3.56927c.12238-.11793.12115-.29751.12509-.44741l-.01364-11.79593c-.0001-.08924-.0362-.17467-.10011-.23695L14.68067.09379c-.10949-.11327-.30119-.03576-.30119.12177v19.96575c0,.07125.07772.16865.13579.20994l4.16084,2.90343c.2408.17016.55857.01306.47303-.26912l-1.59999-5.27813"/>
      <path class="cls-2" d="M15.02308,20.23445l3.60255,2.52812c.04477.03249.06108.03964.04363-.01285l-1.48269-4.65987"/>
      <path class="cls-2" d="M.43595,4.91577l.00058,13.1346c0,.02576.02896.0409.05011.0262l2.98686-2.07523c.06989-.04856.11156-.12826.11156-.21336v-7.64234"/>
      <path class="cls-2" d="M11.25093,16.40675s.07577-.01126.12027-.11555l3.00829-7.22467"/>
      <path class="cls-2" d="M4.05755,7.74343c.01819.01747.03176.03918.03952.06317l2.74846,8.50009c.02655.0781.09997.13055.18246.13033l3.64452-.00952c.0285-.00007.04804-.02873.03771-.05529L6.28263,4.90081c-.032-.08291-.11171-.13758-.20058-.13758H1.01711c-.02225,0-.03316.02711-.01712.04252l3.05755,2.93769Z"/>
      <line class="cls-2" x1="14.37949" y1="1.17888" x2="9.5857" y2="12.12744"/>
      <path class="cls-2" d="M14.93837,1.19532l-.15645,18.70892c-.00018.02182.02627.03278.04157.01722l3.39545-3.45212c.07529-.07376.11744-.17491.11681-.28031l-.07006-11.6387c-.0003-.04944-.01991-.0968-.05465-.13198l-3.2089-3.24889c-.0233-.02359-.06348-.00728-.06376.02587Z"/>
      <path class="cls-3" d="M3.58506,8.1142v2.41186S.48352,5.00051.48352,5.00051c-.00727-.01295.00981-.0257.02016-.01505l3.07464,3.11232c.00432.00437.00674.01027.00674.01642Z"/>
      <polygon class="cls-3" points="14.37949 9.06654 14.20782 9.4788 13.28714 3.70136 14.37949 1.17888 14.37949 9.06654"/>
    </g>
  </g>
</svg>