<?xml version="1.0" encoding="UTF-8"?>
<svg id="Layer_2" data-name="Layer 2" xmlns="http://www.w3.org/2000/svg" viewBox="0 0 471.98343 575.46576">
  <defs>
    <style>
      .cls-1 {
        fill: #fff;
      }

      .cls-2 {
        fill: #231f20;
      }

      .cls-2, .cls-3 {
        stroke: #231f20;
        stroke-miterlimit: 10;
      }

      .cls-3 {
        fill: none;
      }
    </style>
  </defs>
  <g id="White_Fill_Black" data-name="White Fill / Black">
    <g id="Original">
      <path class="cls-1" d="M99.21722,231.85387l-.46596,157.21374c.09874,5.90458-1.75005,8.82358-5.46274,11.38989l-84.08167,58.11963c-3.65247,2.52469-8.63776-.08906-8.63863-4.52918l-.06757-344.95742c-.00065-1.33368,1.38037-2.93114,3.22579-2.92875l147.31107-.59011c5.28664-.02118,10.04399,3.20544,11.97961,8.12503l66.62671,169.33919L353.85217,3.17582c1.51631-3.21955,5.20788-3.63562,7.44263-1.29528l97.49738,101.03086c.97896,1.01438,2.08018,3.10579,2.08399,4.51552l.40839,294.31131c.00463,3.33797-1.31659,6.54114-3.67315,8.90518l-25.35101,25.43153c-.32825.32929-.44802.81284-.3114,1.25728l39.45268,128.34394c2.04215,6.64334-5.47487,12.11311-11.16779,8.12625l-103.65308-72.5901c-1.82923-1.28105-2.91858-3.37385-2.91858-5.60705l-.00006-243.35407-65.08547,156.55422c-1.74244,4.1912-5.83557,6.9223-10.37455,6.9223h-109.12974c-4.44882,0-8.40341-2.83386-9.83337-7.0466l-60.02182-176.82724Z"/>
      <polygon class="cls-2" points="235.59759 298.19745 249.68489 266.12869 278.19455 402.73618 235.59759 298.19745"/>
      <path class="cls-3" d="M353.66217,252.25119l-64.70958,154.75431c-2.20904,5.28295-3.48708,8.50879-14.17497,8.72221"/>
      <path class="cls-3" d="M278.80282,408.25536c-28.65764-72.98234-114.62484-291.9316-114.62484-291.9316-2.81282-7.37164-6.19563-10.57613-14.08569-10.57613l-146.36584.41416c-2.89954.0082-4.31982,3.53739-2.23426,5.5518l86.31784,87.40667c.91085.87978,71.55032,209.60212,71.55032,209.60212,1.46502,4.19527,5.42279,7.00534,9.86651,7.00534h105.55078c2.82896,0,6.34749-1.55787,4.02519-7.47236"/>
      <line class="cls-3" x1="354.14047" y1="2.82048" x2="229.64384" y2="283.0359"/>
      <path class="cls-3" d="M431.72702,436.61003l39.40566,129.9932c2.1067,6.94967-5.71944,10.81899-11.6501,6.62812l-102.47598-71.50763c-1.4302-1.01695-3.34434-3.41564-3.34435-5.17053l-.00007-491.72936c0-3.87983,4.72134-5.78867,7.41781-2.99902l97.3928,100.75814c1.57412,1.53393,2.46302,3.63791,2.46557,5.83582l.33594,290.51774c-.09689,3.6919-.06662,8.11464-3.08073,11.01915l-88.68052,87.90637c-7.42235,7.42235-12.50646,3.8617-12.50646,3.8617"/>
      <path class="cls-3" d="M369.51305,497.86203l88.72601,62.26416c1.10266.80016,1.50443.97624,1.0745-.31654l-36.51674-114.76624"/>
      <path class="cls-3" d="M10.2517,120.58359l.0143,323.48749c.00003.63446.71313,1.00731,1.23418.6453l73.56237-51.11016c1.72119-1.19586,2.74761-3.15885,2.74761-5.2547l-.00013-188.22054"/>
      <path class="cls-3" d="M276.61001,403.59102s1.86602-.27721,2.962-2.84573l74.09019-177.93376"/>
      <path class="cls-3" d="M99.44673,190.22514c.44789.43034.78231.96484.9734,1.55584l67.69097,209.34562c.65381,1.92346,2.46215,3.21516,4.49368,3.20985l89.75968-.23436c.70186-.00183,1.18323-.7076.92876-1.3617L154.24762,120.2151c-.78811-2.0419-2.75127-3.38849-4.93998-3.38849H24.56497c-.54801,0-.81676.66763-.42159,1.0473l75.30335,72.35123Z"/>
      <line class="cls-3" x1="353.66217" y1="28.54901" x2="235.59759" y2="298.19745"/>
      <path class="cls-3" d="M367.42669,28.95397l-3.85324,460.77546c-.00449.53733.64708.80725,1.02388.42416l83.6254-85.02113c1.85434-1.81667,2.89241-4.30785,2.87678-6.90373l-1.72553-286.64552c-.00733-1.21764-.4904-2.38417-1.34607-3.2505l-79.03091-80.01584c-.57375-.5809-1.56348-.17936-1.57031.6371Z"/>
      <path class="cls-2" d="M87.81003,199.35654v59.40075S11.42326,122.67079,11.42326,122.67079c-.17905-.31898.24165-.63306.49659-.37075l75.72412,76.65212c.10639.1077.16606.25299.16606.40437Z"/>
      <polygon class="cls-2" points="353.6622 222.81153 349.43439 232.96498 326.75915 90.67435 353.66217 28.54901 353.6622 222.81153"/>
      <path class="cls-3" d="M.5,109.236l.08212,344.91729c.00154,4.29234,4.81802,6.82141,8.35236,4.38571l84.8465-58.4722c3.10993-2.25893,4.95506-5.86643,4.96646-9.71017l.46978-158.50275"/>
    </g>
  </g>
</svg>