<?xml version="1.0" encoding="UTF-8"?>
<svg id="Layer_2" data-name="Layer 2" xmlns="http://www.w3.org/2000/svg" viewBox="0 0 51.90743 63.26835">
  <defs>
    <style>
      .cls-1 {
        fill: none;
      }

      .cls-1, .cls-2 {
        stroke: #231f20;
        stroke-miterlimit: 10;
        stroke-width: .2px;
      }

      .cls-2 {
        fill: #231f20;
      }
    </style>
  </defs>
  <g id="Black_Outline" data-name="Black Outline">
    <g id="_64" data-name="64">
      <polygon class="cls-2" points="25.91045 32.78304 27.45703 29.26233 30.587 44.25994 25.91045 32.78304"/>
      <path class="cls-1" d="M30.21187,45.68623c1.17338-.02343,1.31369-.37758,1.55621-.95758l7.10421-16.98987"/>
      <path class="cls-1" d="M.1,12.0377l.00902,37.86712c.00017.47124.52895.7489.91697.48149l9.31497-6.41943c.34143-.248.544-.64405.54525-1.06604l.05157-17.4014"/>
      <path class="cls-1" d="M30.65378,44.86587c-3.14621-8.01245-12.58421-32.05003-12.58421-32.05003-.30881-.8093-.68019-1.16111-1.54641-1.16111l-16.06893.04547c-.31833.0009-.47426.38836-.24529.60951l9.4765,9.59604c.1.09659,7.85523,23.0114,7.85523,23.0114.16084.46058.59535.76909,1.08321.76909h11.58801c.31058,0,.69687-.17103.44191-.82036"/>
      <line class="cls-1" x1="38.9248" y1=".35476" x2="25.25681" y2="31.11851"/>
      <path class="cls-1" d="M39.23946,55.12739s.55816.39091,1.37304-.42396l9.73589-9.6509c.33091-.31887.32758-.80443.33822-1.20975l-.03688-31.89481c-.00028-.2413-.09787-.47229-.27068-.64069L39.68667.24545c-.29603-.30626-.81437-.0967-.81437.32925v53.98504c0,.19266.21015.45601.36717.56765l11.25044,7.85054c.6511.4601,1.51031.0353,1.27902-.72768l-4.32619-14.27144"/>
      <path class="cls-1" d="M40.6125,54.70343l9.74088,6.83574c.12106.08785.16517.10718.11797-.03475l-4.00903-12.59974"/>
      <path class="cls-1" d="M1.1706,13.28351l.00157,35.51443c0,.06966.07829.11059.1355.07084l8.07613-5.61118c.18896-.13129.30165-.3468.30165-.57689v-20.664"/>
      <path class="cls-1" d="M30.41304,44.35379s.20486-.03043.32519-.31242l8.13407-19.53465"/>
      <path class="cls-1" d="M10.96297,20.92918c.04917.04724.08589.10593.10687.17081l7.43153,22.98324c.07178.21117.27031.35298.49334.3524l9.85436-.02573c.07705-.0002.1299-.07768.10197-.1495l-11.97169-31.01735c-.08652-.22417-.30205-.37201-.54234-.37201H2.742c-.06016,0-.08967.0733-.04629.11498l8.26726,7.94316Z"/>
      <line class="cls-1" x1="38.87229" y1="3.17939" x2="25.91045" y2="32.78304"/>
      <path class="cls-1" d="M40.38345,3.22385l-.42303,50.58674c-.00049.05899.07104.08862.11241.04657l9.18091-9.33414c.20358-.19944.31755-.47294.31583-.75793l-.18944-31.46969c-.0008-.13368-.05384-.26175-.14778-.35686l-8.67649-8.78463c-.06299-.06378-.17165-.01969-.1724.06994Z"/>
      <path class="cls-2" d="M9.68543,21.93168v6.52138S1.29922,13.51265,1.29922,13.51265c-.01966-.03502.02653-.0695.05452-.0407l8.31345,8.41534c.01168.01182.01823.02777.01823.04439Z"/>
      <polygon class="cls-2" points="38.8723 24.50671 38.40814 25.62142 35.91872 9.99989 38.87229 3.17939 38.8723 24.50671"/>
    </g>
  </g>
</svg>