<?xml version="1.0" encoding="UTF-8"?>
<svg id="Layer_2" data-name="Layer 2" xmlns="http://www.w3.org/2000/svg" viewBox="0 0 77.80114 94.84252">
  <defs>
    <style>
      .cls-1 {
        fill: none;
      }

      .cls-1, .cls-2 {
        stroke: #231f20;
        stroke-miterlimit: 10;
        stroke-width: .24px;
      }

      .cls-2 {
        fill: #231f20;
      }
    </style>
  </defs>
  <g id="Black_Outline" data-name="Black Outline">
    <g id="_96" data-name="96">
      <polygon class="cls-2" points="38.83567 49.14456 41.15555 43.8635 45.8505 66.35991 38.83567 49.14456"/>
      <path class="cls-1" d="M45.2878,68.49934c1.76007-.03515,1.97054-.56637,2.33432-1.43637l10.65632-25.48481"/>
      <path class="cls-1" d="M.12,18.02655l.01352,56.80068c.00025.70686.79343,1.12334,1.37546.72223l13.97245-9.62915c.51214-.372.816-.96608.81787-1.59906l.07736-26.1021"/>
      <path class="cls-1" d="M45.95067,67.2688c-4.71931-12.01867-18.87632-48.07504-18.87632-48.07504-.46321-1.21396-1.02029-1.74167-2.31962-1.74167l-24.1034.0682c-.47749.00135-.71138.58254-.36794.91426l14.21475,14.39405c.15.14488,11.78284,34.5171,11.78284,34.5171.24126.69087.89302,1.15363,1.62481,1.15363h17.38201c.46587,0,1.0453-.25655.66287-1.23054"/>
      <line class="cls-1" x1="58.35721" y1=".50214" x2="37.85521" y2="46.64777"/>
      <path class="cls-1" d="M58.8292,82.66109s.83725.58637,2.05955-.63594l14.60383-14.47634c.49636-.47831.49138-1.20664.50733-1.81462l-.05532-47.84221c-.00042-.36195-.1468-.70843-.40603-.96104L59.5.33817c-.44405-.4594-1.22156-.14505-1.22156.49388v80.97756c.00001.28899.31523.68401.55075.85148l16.87566,11.77581c.97666.69015,2.26546.05295,1.91853-1.09151l-6.48929-21.40717"/>
      <path class="cls-1" d="M60.88875,82.02515l14.61132,10.25361c.18159.13177.24775.16077.17695-.05213l-6.01355-18.8996"/>
      <path class="cls-1" d="M1.7259,19.89526l.00236,53.27164c0,.10448.11744.16588.20324.10627l12.11419-8.41678c.28344-.19693.45247-.5202.45247-.86534l-.00002-30.996"/>
      <path class="cls-1" d="M45.58956,66.50068s.30729-.04565.48778-.46863l12.20111-29.30198"/>
      <path class="cls-1" d="M16.41446,31.36377c.07376.07087.12883.15889.1603.25622l11.14729,34.47486c.10767.31675.40547.52947.74002.5286l14.78155-.03859c.11558-.0003.19485-.11653.15295-.22424L25.43902,19.83458c-.12978-.33626-.45308-.55801-.81351-.55801H4.083c-.09025,0-.1345.10994-.06943.17247l12.40089,11.91474Z"/>
      <line class="cls-1" x1="58.27844" y1="4.73909" x2="38.83567" y2="49.14456"/>
      <path class="cls-1" d="M60.54517,4.80578l-.63455,75.8801c-.00074.08849.10656.13294.16861.06985l13.77136-14.00121c.30537-.29917.47632-.70941.47375-1.1369l-.28416-47.20454c-.00121-.20052-.08076-.39262-.22167-.53529l-13.01474-13.17694c-.09449-.09566-.25747-.02954-.2586.10492Z"/>
      <path class="cls-2" d="M14.49814,32.86752v9.78206S1.91883,20.23898,1.91883,20.23898c-.02949-.05253.0398-.10425.08178-.06105l12.47018,12.62301c.01752.01774.02735.04166.02735.06659Z"/>
      <polygon class="cls-2" points="58.27845 36.73007 57.58221 38.40213 53.84807 14.96983 58.27844 4.73909 58.27845 36.73007"/>
    </g>
  </g>
</svg>