<?xml version="1.0" encoding="UTF-8"?>
<svg id="Layer_2" data-name="Layer 2" xmlns="http://www.w3.org/2000/svg" viewBox="0 0 475.27618 579.48198">
  <defs>
    <style>
      .cls-1 {
        fill: #231f20;
      }

      .cls-1, .cls-2 {
        stroke: #231f20;
        stroke-miterlimit: 10;
      }

      .cls-2 {
        fill: none;
      }
    </style>
  </defs>
  <g id="Black_Outline" data-name="Black Outline">
    <g id="Original">
      <polygon class="cls-1" points="237.24122 300.27872 251.42699 267.98576 280.13598 405.54831 237.24122 300.27872"/>
      <path class="cls-2" d="M276.69517,418.63067c10.76261-.21491,12.04959-3.4633,14.27407-8.78319l65.16198-155.83624"/>
      <path class="cls-2" d="M.5,109.99619l.0827,347.32868c.00155,4.32235,4.8517,6.8691,8.41075,4.41637l85.43968-58.88099c3.13168-2.27472,4.98971-5.90745,5.00118-9.77805l.47306-159.61088"/>
      <path class="cls-2" d="M280.7485,411.10607c-28.85799-73.49258-115.4262-293.97256-115.4262-293.97256-2.83249-7.42318-6.23895-10.65007-14.18417-10.65007l-147.38912.41705c-2.91981.00826-4.35002,3.56213-2.24988,5.59061l86.92131,88.01775c.91722.88593,72.05054,211.0675,72.05054,211.0675,1.47526,4.2246,5.4607,7.05432,9.93548,7.05432h106.28871c2.84874,0,6.39187-1.56876,4.05333-7.5246"/>
      <line class="cls-2" x1="356.61285" y1="2.83671" x2="231.24584" y2="285.01118"/>
      <path class="cls-2" d="M359.499,505.2279s5.11966,3.58555,12.5939-3.8887l89.30051-88.52094c3.03518-2.92481,3.0047-7.37847,3.10227-11.09618l-.33829-292.54882c-.00256-2.21327-.89768-4.33196-2.4828-5.87662L363.60088,1.83407c-2.71532-2.80915-7.46967-.88696-7.46967,3.01999l.00007,495.16715c0,1.76717,1.92753,4.18262,3.36773,5.20668l103.19242,72.00755c5.97212,4.22017,13.85298.3238,11.73155-6.67446l-39.68115-130.90201"/>
      <path class="cls-2" d="M372.0929,501.3392l89.34631,62.69946c1.11037.80576,1.51494.98307,1.08201-.31875l-36.77204-115.56859"/>
      <path class="cls-2" d="M10.31987,121.42312l.0144,325.74906c.00003.6389.71812,1.01436,1.2428.64981l74.07666-51.46748c1.73323-1.20422,2.76682-3.18093,2.76682-5.29143l-.00013-189.53643"/>
      <path class="cls-2" d="M278.54036,406.40912s1.87906-.27915,2.98271-2.86563l74.60817-179.17773"/>
      <path class="cls-2" d="M100.13849,191.55156c.45103.43334.78778.97159.98021,1.56672l68.16422,210.80921c.65838,1.9369,2.47937,3.23764,4.5251,3.2323l90.38721-.236c.70677-.00185,1.1915-.71254.93526-1.37122L155.3225,121.05206c-.79362-2.05617-2.7705-3.41218-4.97452-3.41218H24.73322c-.55184,0-.82247.67229-.42454,1.05463l75.82981,72.85706Z"/>
      <line class="cls-2" x1="356.13121" y1="28.74511" x2="237.24122" y2="300.27872"/>
      <path class="cls-2" d="M369.99195,29.1529l-3.88018,463.99685c-.00452.54108.6516.81289,1.03104.42712l84.21005-85.61553c1.8673-1.82937,2.91263-4.33796,2.8969-6.95199l-1.7376-288.64953c-.00738-1.22615-.49383-2.40084-1.35548-3.27323l-79.58343-80.57525c-.57776-.58496-1.57441-.18061-1.58129.64155Z"/>
      <path class="cls-1" d="M88.42043,200.74679v59.81604S11.49963,123.52491,11.49963,123.52491c-.1803-.32121.24334-.63749.50006-.37334l76.25352,77.18801c.10714.10845.16722.25476.16722.4072Z"/>
      <polygon class="cls-1" points="356.13124 224.36576 351.87387 234.5902 329.0401 91.30478 356.13121 28.74511 356.13124 224.36576"/>
    </g>
  </g>
</svg>