<?xml version="1.0" encoding="UTF-8"?>
<svg id="Layer_2" data-name="Layer 2" xmlns="http://www.w3.org/2000/svg" viewBox="0 0 39.18667 47.09961">
  <defs>
    <style>
      .cls-1 {
        fill: none;
      }

      .cls-1, .cls-2 {
        stroke: #fff;
        stroke-miterlimit: 10;
        stroke-width: .18px;
      }

      .cls-2 {
        fill: #fff;
      }
    </style>
  </defs>
  <g id="White_Outline" data-name="White Outline">
    <g id="_48" data-name="48">
      <g id="_48-2" data-name="48">
        <polygon class="cls-2" points="19.5607 24.4045 20.7274 21.78528 23.08856 32.94273 19.5607 24.4045"/>
        <path class="cls-1" d="M22.80557,34.00381c.88517-.01743.99101-.2809,1.17397-.71239l5.35922-12.63959"/>
        <path class="cls-1" d="M.09,8.97104l.0068,28.17119c.00013.35058.39903.55714.69174.3582l7.02696-4.77573c.25756-.1845.41038-.47914.41132-.79308l.03891-12.94575"/>
        <path class="cls-1" d="M23.13894,33.39351c-2.37341-5.96085-9.49319-23.84358-9.49319-23.84358-.23296-.60208-.51312-.86381-1.16657-.86381l-12.12196.03383c-.24014.00067-.35777.28892-.18504.45344l7.14881,7.13896c.07544.07186,5.92577,17.1193,5.92577,17.1193.12133.34265.44911.57216.81714.57216h8.74168c.23429,0,.5257-.12724.33337-.61031"/>
        <line class="cls-1" x1="29.37837" y1=".27953" x2="19.06761" y2="23.16618"/>
        <path class="cls-1" d="M29.61574,41.02756s.42106.29082,1.03578-.3154l7.34449-7.17977c.24963-.23723.24712-.59845.25514-.89999l-.02782-23.7281c-.00021-.17951-.07383-.35136-.2042-.47664L29.9531.1982c-.22332-.22784-.61434-.07194-.61434.24495v40.1621c0,.14333.15853.33924.27698.4223l8.48702,5.8404c.49118.34229,1.13933.02626.96486-.54135l-3.26356-10.61722"/>
        <path class="cls-1" d="M30.65152,40.71215l7.34826,5.08544c.09132.06535.1246.07973.08899-.02585l-3.0243-9.37356"/>
        <path class="cls-1" d="M.89763,9.89785l.00118,26.42091c0,.05182.05906.08227.10221.0527l6.09241-4.17443c.14255-.09767.22756-.258.22756-.42918v-15.37295"/>
        <path class="cls-1" d="M22.95733,33.01255s.15454-.02264.24531-.23243l6.13612-14.53278"/>
        <path class="cls-1" d="M8.28473,15.58584c.03709.03515.06479.0788.08062.12707l5.60614,17.09835c.05415.1571.20391.2626.37217.26217l7.43386-.01914c.05813-.00015.09799-.05779.07692-.11122L12.82332,9.86776c-.06527-.16677-.22786-.27676-.40913-.27676H2.08305c-.04539,0-.06764.05453-.03492.08554l6.2366,5.9093Z"/>
        <line class="cls-1" x1="29.33876" y1="2.38091" x2="19.5607" y2="24.4045"/>
        <path class="cls-1" d="M30.47873,2.41398l-.31912,37.63393c-.00037.04389.05359.06593.0848.03464l6.92582-6.94412c.15358-.14838.23955-.35184.23825-.56386l-.14291-23.41183c-.00061-.09945-.04062-.19473-.11148-.26549l-6.54531-6.53531c-.04752-.04745-.12949-.01465-.13005.05203Z"/>
        <path class="cls-2" d="M7.32098,16.33165v4.85157S.99466,10.06833.99466,10.06833c-.01483-.02605.02001-.05171.04113-.03028l6.27144,6.26058c.00881.0088.01375.02066.01375.03303Z"/>
        <polygon class="cls-2" points="29.33876 18.24734 28.98862 19.07663 27.11066 7.45501 29.33876 2.38091 29.33876 18.24734"/>
      </g>
    </g>
  </g>
</svg>