<?xml version="1.0" encoding="UTF-8"?>
<svg id="Layer_2" data-name="Layer 2" xmlns="http://www.w3.org/2000/svg" viewBox="0 0 472.94414 576.63756">
  <defs>
    <style>
      .cls-1 {
        fill: #fff;
      }

      .cls-1, .cls-2 {
        stroke: #fff;
        stroke-miterlimit: 10;
      }

      .cls-2 {
        fill: none;
      }
    </style>
  </defs>
  <g id="White_Outline" data-name="White Outline">
    <g id="Original">
      <g id="Original-2" data-name="Original">
        <polygon class="cls-1" points="236.07715 298.80469 250.19318 266.67052 278.761 403.55667 236.07715 298.80469"/>
        <path class="cls-2" d="M354.38256,252.76472l-64.84157,155.06998c-2.21354,5.29373-3.49419,8.52615-14.20388,8.74"/>
        <path class="cls-2" d="M279.37051,409.0871c-28.71609-73.13121-114.85865-292.52709-114.85865-292.52709-2.81856-7.38668-6.20827-10.5977-14.11442-10.5977l-146.6644.415c-2.90545.00822-4.32863,3.54461-2.23882,5.56312l86.49391,87.58496c.91271.88157,71.69627,210.02967,71.69627,210.02967,1.468,4.20383,5.43385,7.01963,9.88663,7.01963h105.76608c2.83473,0,6.36044-1.56104,4.0334-7.4876"/>
        <line class="cls-2" x1="354.86183" y1="2.82522" x2="230.11125" y2="283.61222"/>
        <path class="cls-2" d="M432.60664,437.49962l39.48604,130.25836c2.11099,6.96385-5.73111,10.84106-11.67387,6.64164l-102.68502-71.65349c-1.43312-1.01902-3.35117-3.4226-3.35117-5.18108l-.00007-492.73239c0-3.88774,4.73097-5.80048,7.43294-3.00514l97.59147,100.96367c1.57733,1.53706,2.46805,3.64533,2.47059,5.84772l.33663,291.11035c-.09709,3.69943-.06675,8.13119-3.08701,11.04162l-88.86141,88.08568c-7.43749,7.43749-12.53198,3.86957-12.53198,3.86957"/>
        <path class="cls-2" d="M370.26576,498.87655l88.90699,62.39117c1.10491.80179,1.50749.97824,1.07669-.31719l-36.59123-115.00034"/>
        <path class="cls-2" d="M10.27159,120.82853l.01433,324.14734c.00003.63576.71458,1.00937,1.23669.64662l73.71243-51.21441c1.7247-1.1983,2.75322-3.16529,2.75321-5.26542l-.00013-188.60447"/>
        <path class="cls-2" d="M277.17322,404.41325s1.86982-.27778,2.96804-2.85154l74.24132-178.29671"/>
        <path class="cls-2" d="M99.64856,190.61215c.44881.43121.7839.96681.97539,1.55902l67.82905,209.77265c.65515,1.92738,2.46717,3.22172,4.50285,3.2164l89.94277-.23484c.70329-.00184,1.18565-.70904.93066-1.36448L154.56124,120.4593c-.78971-2.04606-2.75688-3.39541-4.95006-3.39541H24.61406c-.54913,0-.81843.66899-.42245,1.04944l75.45696,72.49881Z"/>
        <line class="cls-2" x1="354.38256" y1="28.60622" x2="236.07715" y2="298.80469"/>
        <path class="cls-2" d="M368.17515,29.01201l-3.8611,461.71536c-.0045.53842.6484.8089,1.02597.42502l83.79598-85.19455c1.85812-1.82037,2.89831-4.31663,2.88265-6.91781l-1.72905-287.23022c-.00734-1.22012-.4914-2.38903-1.34882-3.25713l-79.19212-80.17905c-.57492-.58209-1.56667-.17972-1.57351.63839Z"/>
        <path class="cls-1" d="M87.98813,199.76217v59.52192S11.44555,122.91999,11.44555,122.91999c-.17941-.31963.24215-.63436.49761-.3715l75.87858,76.80848c.10661.10792.1664.2535.1664.4052Z"/>
        <polygon class="cls-1" points="354.38258 223.26501 350.14615 233.43916 327.42466 90.85829 354.38256 28.60622 354.38258 223.26501"/>
        <path class="cls-2" d="M.5,109.4578l.08229,345.62085c.00154,4.3011,4.82785,6.83532,8.3694,4.39465l85.01957-58.59147c3.11628-2.26353,4.96517-5.8784,4.97659-9.72997l.47074-158.82606"/>
      </g>
    </g>
  </g>
</svg>